<?xml version="1.0" encoding="UTF-8" standalone="no"?>
<svg
   viewBox="0 0 512 512"
   version="1.1"
   id="svg1"
   sodipodi:docname="filigree.svg"
   inkscape:version="1.3.2 (091e20ef0f, 2023-11-25, custom)"
   xml:space="preserve"
   xmlns:inkscape="http://www.inkscape.org/namespaces/inkscape"
   xmlns:sodipodi="http://sodipodi.sourceforge.net/DTD/sodipodi-0.dtd"
   xmlns="http://www.w3.org/2000/svg"
   xmlns:svg="http://www.w3.org/2000/svg"><defs
     id="defs1" /><sodipodi:namedview
     id="namedview1"
     pagecolor="#ffffff"
     bordercolor="#000000"
     borderopacity="0.25"
     inkscape:showpageshadow="2"
     inkscape:pageopacity="0.0"
     inkscape:pagecheckerboard="0"
     inkscape:deskcolor="#d1d1d1"
     inkscape:zoom="1.2251131"
     inkscape:cx="191.81902"
     inkscape:cy="171.82086"
     inkscape:window-width="1920"
     inkscape:window-height="1007"
     inkscape:window-x="0"
     inkscape:window-y="45"
     inkscape:window-maximized="1"
     inkscape:current-layer="svg1" /><!--!Font Awesome Free 6.5.1 by @fontawesome - https://fontawesome.com License - https://fontawesome.com/license/free Copyright 2024 Fonticons, Inc.--><path
     d="M337.8 205.7l48.6-42.5c13.8 19.3 23.4 41.9 27.4 66.2l-64.4 4.3c-2.4-10.1-6.4-19.5-11.6-28zm140.1 19.5c-5.3-38.8-20.6-74.5-43.2-104.3l.8-.7C449 108.4 449.7 87.6 437 75s-33.4-12-45.2 1.5l-.7 .8c-29.8-22.6-65.5-37.9-104.3-43.2l.1-1.1c1.2-17.9-13-33-30.9-33s-32.1 15.2-30.9 33l.1 1.1c-38.8 5.3-74.5 20.6-104.3 43.2l-.7-.8C108.4 63 87.6 62.3 75 75s-12 33.4 1.5 45.2l.8 .7c-22.6 29.8-37.9 65.5-43.2 104.3l-1.1-.1c-17.9-1.2-33 13-33 30.9s15.2 32.1 33 30.9l1.1-.1c5.3 38.8 20.6 74.5 43.2 104.3l-.8 .7C63 403.6 62.3 424.4 75 437s33.4 12 45.2-1.5l.7-.8c29.8 22.6 65.5 37.9 104.3 43.2l-.1 1.1c-1.2 17.9 13 33 30.9 33s32.1-15.2 30.9-33l-.1-1.1c38.8-5.3 74.5-20.6 104.3-43.2l.7 .8c11.8 13.5 32.5 14.2 45.2 1.5s12-33.4-1.5-45.2l-.8-.7c22.6-29.8 37.9-65.5 43.2-104.3l1.1 .1c17.9 1.2 33-13 33-30.9s-15.2-32.1-33-30.9l-1.1 .1zM163.2 125.6c19.3-13.8 41.9-23.4 66.2-27.5l4.3 64.4c-10 2.4-19.5 6.4-28 11.6l-42.5-48.6zm-65 103.8c4.1-24.4 13.7-46.9 27.5-66.2l48.6 42.5c-5.3 8.5-9.2 18-11.6 28l-64.4-4.3zm27.5 119.4c-13.8-19.3-23.4-41.9-27.5-66.2l64.4-4.3c2.4 10 6.4 19.5 11.6 28l-48.6 42.5zm103.8 65c-24.4-4.1-46.9-13.7-66.2-27.4l42.5-48.6c8.5 5.3 18 9.2 28 11.6l-4.3 64.4zm119.4-27.4c-19.3 13.8-41.9 23.4-66.2 27.4l-4.3-64.4c10-2.4 19.5-6.4 28-11.6l42.5 48.6zm65-103.8c-4.1 24.4-13.7 46.9-27.4 66.2l-48.6-42.5c5.3-8.5 9.2-18 11.6-28l64.4 4.3zm-65-156.9l-42.5 48.6c-8.5-5.3-18-9.2-28-11.6l4.3-64.4c24.4 4.1 46.9 13.7 66.2 27.5zM256 224a32 32 0 1 1 0 64 32 32 0 1 1 0-64z"
     id="path1"
     style="fill:#666666" /><path
     style="fill:#ffffff;stroke-width:0.192407"
     d="m 185.92727,323.06001 c -5.84503,-1.11675 -11.11899,-5.23259 -13.64438,-10.64815 -1.51849,-3.25632 -2.0595,-5.69316 -2.04212,-9.19816 0.0234,-4.71079 0.73,-6.74509 5.10933,-14.70911 3.04207,-5.53213 11.58534,-21.10057 35.32055,-64.36473 5.36166,-9.77317 13.96046,-25.45466 19.10843,-34.84777 5.14797,-9.3931 9.81956,-17.80037 10.38131,-18.68283 1.13307,-1.77995 3.35437,-4.12018 4.99471,-5.26215 1.70235,-1.18513 4.02726,-2.27196 6.05451,-2.8303 1.60115,-0.44099 2.27216,-0.51697 4.59383,-0.52022 2.34123,-0.003 2.9792,0.0683 4.59384,0.51468 2.20923,0.61088 5.1643,2.07358 6.76644,3.34924 1.43027,1.13881 3.52229,3.44898 4.41262,4.87274 0.37337,0.59708 3.04064,5.39468 5.92726,10.66134 6.5645,11.97694 26.99843,49.22377 46.8467,85.39184 8.50954,15.50635 15.43169,28.33471 15.76743,29.22079 0.95098,2.50977 1.25631,4.35172 1.2437,7.50264 -0.009,2.32331 -0.0894,3.079 -0.50237,4.73851 -1.9074,7.6655 -7.87226,13.44776 -15.28198,14.81419 -1.36345,0.25144 -10.62106,0.28743 -69.93882,0.27198 -55.23065,-0.0143 -68.62554,-0.0671 -69.71099,-0.27453 z"
     id="path2"
     sodipodi:nodetypes="sssssssssssssssscssss" /><path
     style="fill:#ffffff;stroke-width:0.192407"
     d="m 324.48908,189.81236 c 5.88232,0.89993 11.30482,4.818 14.02867,10.13651 1.63783,3.19796 2.26854,5.61314 2.38074,9.11638 0.15075,4.70844 -0.48017,6.76747 -4.56211,14.88793 -2.83549,5.6408 -10.79743,21.5144 -32.91714,65.62638 -4.99673,9.96468 -13.00998,25.95331 -17.80721,35.5303 -4.79723,9.57698 -9.15485,18.15119 -9.6836,19.05381 -1.06649,1.82062 -3.19977,4.24136 -4.79677,5.44319 -1.65738,1.24724 -3.94053,2.41927 -5.94575,3.05217 -1.58376,0.49987 -2.2515,0.60061 -4.57146,0.68968 -2.33952,0.0895 -2.97969,0.0419 -4.60973,-0.34452 -2.2303,-0.5288 -5.23742,-1.88126 -6.88562,-3.09683 -1.47139,-1.08516 -3.64738,-3.31642 -4.58973,-4.70629 -0.39518,-0.58287 -3.23798,-5.2786 -6.31731,-10.43495 -7.00274,-11.7261 -28.79955,-48.19212 -49.97122,-83.60177 -9.07693,-15.1812 -16.46855,-27.74491 -16.83682,-28.61797 -1.0431,-2.4729 -1.41631,-4.30231 -1.52018,-7.45154 -0.0769,-2.32205 -0.0245,-3.0802 0.32686,-4.75384 1.62274,-7.73077 7.36978,-13.72957 14.72392,-15.36897 1.35323,-0.30167 10.60318,-0.67985 69.88097,-2.85711 55.19343,-2.02734 68.58112,-2.46972 69.67349,-2.30256 z"
     id="path2-2"
     sodipodi:nodetypes="sssssssssssssssscssss" /></svg>
